<svg width="20" height="20" viewBox="0 0 20 20" fill="none" xmlns="http://www.w3.org/2000/svg">
<path d="M15.1893 8.74999C15.7127 9.39269 16.0274 10.2565 16.0274 11.3584C16.0274 12.3885 15.7523 13.2105 15.2889 13.8383C15.1207 14.0661 15.1562 14.5969 15.2905 14.8461C15.6121 15.4424 15.0045 16.0958 14.3442 15.9444C13.8499 15.8311 13.3315 15.6778 12.8778 15.4722C12.7117 15.3969 12.5282 15.3665 12.347 15.387C12.1219 15.4125 11.8921 15.425 11.6594 15.425C10.5796 15.425 9.56222 15.1538 8.78145 14.5833M12.6941 8.02502C12.6941 10.8296 10.6553 12.0917 8.32618 12.0917C8.09351 12.0917 7.86373 12.0791 7.63859 12.0536C7.45736 12.0331 7.27395 12.0635 7.10783 12.1388C6.65412 12.3445 6.13567 12.4978 5.6414 12.6111C4.98107 12.7625 4.37356 12.109 4.69509 11.5127C4.82944 11.2636 4.86487 10.7327 4.69675 10.505C4.2333 9.87717 3.95825 9.05515 3.95825 8.02502C3.95825 5.22041 5.99702 3.95833 8.32618 3.95833C10.6553 3.95833 12.6941 5.22041 12.6941 8.02502Z" stroke="#ADA9BB" stroke-width="1.5" stroke-linecap="round" stroke-linejoin="round"/>
</svg>
