<svg width="20" height="20" viewBox="0 0 20 20" fill="none" xmlns="http://www.w3.org/2000/svg">
<path d="M4.68435 12.4689L5.60169 12.6126C6.27886 12.7186 6.76246 13.3388 6.71259 14.0376L6.64501 14.9847C6.62532 15.2606 6.77231 15.5203 7.01575 15.6405L7.69423 15.9748C7.93768 16.0949 8.22836 16.05 8.42718 15.8627L9.10895 15.2183C9.61158 14.7431 10.3872 14.7431 10.8905 15.2183L11.5722 15.8627C11.7711 16.0506 12.0611 16.0949 12.3052 15.9748L12.985 15.6398C13.2278 15.5203 13.3741 15.2613 13.3544 14.986L13.2868 14.0376C13.237 13.3388 13.7206 12.7186 14.3977 12.6126L15.3151 12.4689C15.5821 12.4273 15.7974 12.2226 15.8577 11.9527L16.0251 11.2023C16.0854 10.9325 15.9785 10.6526 15.7554 10.4968L14.9896 9.96051C14.4246 9.56448 14.2521 8.79122 14.5933 8.18375L15.0559 7.36082C15.1904 7.12119 15.1681 6.82115 14.9995 6.60501L14.5303 6.00291C14.3616 5.78677 14.0808 5.6975 13.8223 5.77872L12.9351 6.05661C12.2796 6.26201 11.5808 5.91766 11.3288 5.2659L10.9889 4.38456C10.8892 4.12681 10.6457 3.95766 10.3747 3.95833L9.62274 3.96034C9.35174 3.96102 9.10895 4.13151 9.01053 4.38993L8.67916 5.2612C8.42981 5.91699 7.7277 6.26402 7.07021 6.05728L6.14631 5.76731C5.88712 5.68542 5.60497 5.77536 5.43633 5.99284L4.97044 6.59561C4.80181 6.81376 4.78146 7.11448 4.91861 7.35411L5.39171 8.17905C5.74014 8.78719 5.56953 9.56784 5.00128 9.96588L4.24471 10.4962C4.02161 10.6526 3.91465 10.9325 3.97502 11.2016L4.14235 11.9521C4.20206 12.2226 4.41729 12.4273 4.68435 12.4689Z" stroke="#ADA9BB" stroke-width="1.5" stroke-linecap="round" stroke-linejoin="round"/>
<path d="M11.3259 8.6741C12.0581 9.40625 12.0581 10.5937 11.3259 11.3259C10.5938 12.058 9.4063 12.058 8.67415 11.3259C7.942 10.5937 7.942 9.40625 8.67415 8.6741C9.4063 7.94196 10.5938 7.94196 11.3259 8.6741Z" stroke="#ADA9BB" stroke-width="1.5" stroke-linecap="round" stroke-linejoin="round"/>
</svg>
